<?xml version="1.0" encoding="UTF-8" standalone="no"?>
<!DOCTYPE svg PUBLIC "-//W3C//DTD SVG 1.1//EN"
 "http://www.w3.org/Graphics/SVG/1.1/DTD/svg11.dtd">
<!-- Generated by graphviz version 2.49.3 (20211023.0002)
 -->
<!-- Title: Graph Pages: 1 -->
<svg width="1346pt" height="664pt"
 viewBox="0.00 0.00 1346.00 664.00" xmlns="http://www.w3.org/2000/svg" xmlns:xlink="http://www.w3.org/1999/xlink">
<g id="graph0" class="graph" transform="scale(1 1) rotate(0) translate(4 660)">
<title>Graph</title>
<polygon fill="white" stroke="transparent" points="-4,4 -4,-660 1342,-660 1342,4 -4,4"/>
<g id="clust1" class="cluster">
<title>cluster_input</title>
<polygon fill="none" stroke="white" points="486,-584 486,-648 878,-648 878,-584 486,-584"/>
</g>
<g id="clust2" class="cluster">
<title>cluster_1</title>
<polygon fill="none" stroke="white" points="50,-392 50,-456 1318,-456 1318,-392 50,-392"/>
</g>
<g id="clust3" class="cluster">
<title>cluster_2</title>
<polygon fill="none" stroke="white" points="8,-200 8,-264 1330,-264 1330,-200 8,-200"/>
</g>
<g id="clust4" class="cluster">
<title>cluster_output</title>
<polygon fill="none" stroke="white" points="538,-8 538,-72 826,-72 826,-8 538,-8"/>
</g>
<!-- 1 -->
<g id="node1" class="node">
<title>1</title>
<ellipse fill="#2ecc71" stroke="#2ecc71" cx="852" cy="-616" rx="18" ry="18"/>
<text text-anchor="middle" x="852" y="-612.3" font-family="Times,serif" font-size="14.00" fill="#2ecc71">1</text>
</g>
<!-- 3 -->
<g id="node4" class="node">
<title>3</title>
<ellipse fill="#3498db" stroke="#3498db" cx="632" cy="-424" rx="18" ry="18"/>
<text text-anchor="middle" x="632" y="-420.3" font-family="Times,serif" font-size="14.00" fill="#3498db">3</text>
</g>
<!-- 1&#45;&gt;3 -->
<g id="edge1" class="edge">
<title>1&#45;&gt;3</title>
<path fill="none" stroke="#707070" d="M838.57,-603.4C799.2,-569.4 684.4,-470.25 645.26,-436.45"/>
</g>
<!-- 4 -->
<g id="node5" class="node">
<title>4</title>
<ellipse fill="#3498db" stroke="#3498db" cx="524" cy="-424" rx="18" ry="18"/>
<text text-anchor="middle" x="524" y="-420.3" font-family="Times,serif" font-size="14.00" fill="#3498db">4</text>
</g>
<!-- 1&#45;&gt;4 -->
<g id="edge3" class="edge">
<title>1&#45;&gt;4</title>
<path fill="none" stroke="#707070" d="M836.62,-606.09C781.53,-574.18 594.39,-465.77 539.35,-433.89"/>
</g>
<!-- 5 -->
<g id="node6" class="node">
<title>5</title>
<ellipse fill="#3498db" stroke="#3498db" cx="416" cy="-424" rx="18" ry="18"/>
<text text-anchor="middle" x="416" y="-420.3" font-family="Times,serif" font-size="14.00" fill="#3498db">5</text>
</g>
<!-- 1&#45;&gt;5 -->
<g id="edge5" class="edge">
<title>1&#45;&gt;5</title>
<path fill="none" stroke="#707070" d="M835.7,-607.9C766.91,-577.92 500.65,-461.89 432.15,-432.04"/>
</g>
<!-- 6 -->
<g id="node7" class="node">
<title>6</title>
<ellipse fill="#3498db" stroke="#3498db" cx="308" cy="-424" rx="18" ry="18"/>
<text text-anchor="middle" x="308" y="-420.3" font-family="Times,serif" font-size="14.00" fill="#3498db">6</text>
</g>
<!-- 1&#45;&gt;6 -->
<g id="edge7" class="edge">
<title>1&#45;&gt;6</title>
<path fill="none" stroke="#707070" d="M835.12,-609.11C754.06,-580.79 405.31,-458.99 324.68,-430.83"/>
</g>
<!-- 7 -->
<g id="node8" class="node">
<title>7</title>
<ellipse fill="#3498db" stroke="#3498db" cx="1292" cy="-424" rx="18" ry="18"/>
<text text-anchor="middle" x="1292" y="-420.3" font-family="Times,serif" font-size="14.00" fill="#3498db">7</text>
</g>
<!-- 1&#45;&gt;7 -->
<g id="edge9" class="edge">
<title>1&#45;&gt;7</title>
<path fill="none" stroke="#707070" d="M868.18,-608.01C937.18,-578.22 1206.39,-461.97 1275.67,-432.05"/>
</g>
<!-- 8 -->
<g id="node9" class="node">
<title>8</title>
<ellipse fill="#3498db" stroke="#3498db" cx="1184" cy="-424" rx="18" ry="18"/>
<text text-anchor="middle" x="1184" y="-420.3" font-family="Times,serif" font-size="14.00" fill="#3498db">8</text>
</g>
<!-- 1&#45;&gt;8 -->
<g id="edge11" class="edge">
<title>1&#45;&gt;8</title>
<path fill="none" stroke="#707070" d="M867.57,-606.09C923.33,-574.18 1112.75,-465.77 1168.47,-433.89"/>
</g>
<!-- 9 -->
<g id="node10" class="node">
<title>9</title>
<ellipse fill="#3498db" stroke="#3498db" cx="1076" cy="-424" rx="18" ry="18"/>
<text text-anchor="middle" x="1076" y="-420.3" font-family="Times,serif" font-size="14.00" fill="#3498db">9</text>
</g>
<!-- 1&#45;&gt;9 -->
<g id="edge13" class="edge">
<title>1&#45;&gt;9</title>
<path fill="none" stroke="#707070" d="M865.34,-603.68C905.18,-569.89 1022.98,-469.97 1062.73,-436.26"/>
</g>
<!-- 10 -->
<g id="node11" class="node">
<title>10</title>
<ellipse fill="#3498db" stroke="#3498db" cx="966" cy="-424" rx="20.3" ry="20.3"/>
<text text-anchor="middle" x="966" y="-420.3" font-family="Times,serif" font-size="14.00" fill="#3498db">10</text>
</g>
<!-- 1&#45;&gt;10 -->
<g id="edge15" class="edge">
<title>1&#45;&gt;10</title>
<path fill="none" stroke="#707070" d="M860.95,-600.09C881.89,-565.19 933.99,-478.35 955.97,-441.72"/>
</g>
<!-- 11 -->
<g id="node12" class="node">
<title>11</title>
<ellipse fill="#3498db" stroke="#3498db" cx="854" cy="-424" rx="19.5" ry="19.5"/>
<text text-anchor="middle" x="854" y="-420.3" font-family="Times,serif" font-size="14.00" fill="#3498db">11</text>
</g>
<!-- 1&#45;&gt;11 -->
<g id="edge17" class="edge">
<title>1&#45;&gt;11</title>
<path fill="none" stroke="#707070" d="M852.18,-597.8C852.56,-562.18 853.42,-480.56 853.8,-443.69"/>
</g>
<!-- 12 -->
<g id="node13" class="node">
<title>12</title>
<ellipse fill="#3498db" stroke="#3498db" cx="742" cy="-424" rx="20.3" ry="20.3"/>
<text text-anchor="middle" x="742" y="-420.3" font-family="Times,serif" font-size="14.00" fill="#3498db">12</text>
</g>
<!-- 1&#45;&gt;12 -->
<g id="edge19" class="edge">
<title>1&#45;&gt;12</title>
<path fill="none" stroke="#707070" d="M843.37,-600.09C823.16,-565.19 772.89,-478.35 751.68,-441.72"/>
</g>
<!-- 2 -->
<g id="node2" class="node">
<title>2</title>
<ellipse fill="#2ecc71" stroke="#2ecc71" cx="744" cy="-616" rx="18" ry="18"/>
<text text-anchor="middle" x="744" y="-612.3" font-family="Times,serif" font-size="14.00" fill="#2ecc71">2</text>
</g>
<!-- 2&#45;&gt;3 -->
<g id="edge2" class="edge">
<title>2&#45;&gt;3</title>
<path fill="none" stroke="#707070" d="M735.21,-600.09C714.27,-564.57 661.64,-475.29 640.75,-439.84"/>
</g>
<!-- 2&#45;&gt;4 -->
<g id="edge4" class="edge">
<title>2&#45;&gt;4</title>
<path fill="none" stroke="#707070" d="M730.57,-603.4C691.2,-569.4 576.4,-470.25 537.26,-436.45"/>
</g>
<!-- 2&#45;&gt;5 -->
<g id="edge6" class="edge">
<title>2&#45;&gt;5</title>
<path fill="none" stroke="#707070" d="M728.62,-606.09C673.53,-574.18 486.39,-465.77 431.35,-433.89"/>
</g>
<!-- 2&#45;&gt;6 -->
<g id="edge8" class="edge">
<title>2&#45;&gt;6</title>
<path fill="none" stroke="#707070" d="M727.7,-607.9C658.91,-577.92 392.65,-461.89 324.15,-432.04"/>
</g>
<!-- 2&#45;&gt;7 -->
<g id="edge10" class="edge">
<title>2&#45;&gt;7</title>
<path fill="none" stroke="#707070" d="M760.7,-609.21C841.78,-581.1 1193.78,-459.06 1275.16,-430.84"/>
</g>
<!-- 2&#45;&gt;8 -->
<g id="edge12" class="edge">
<title>2&#45;&gt;8</title>
<path fill="none" stroke="#707070" d="M760.18,-608.01C829.18,-578.22 1098.39,-461.97 1167.67,-432.05"/>
</g>
<!-- 2&#45;&gt;9 -->
<g id="edge14" class="edge">
<title>2&#45;&gt;9</title>
<path fill="none" stroke="#707070" d="M759.57,-606.09C815.33,-574.18 1004.75,-465.77 1060.47,-433.89"/>
</g>
<!-- 2&#45;&gt;10 -->
<g id="edge16" class="edge">
<title>2&#45;&gt;10</title>
<path fill="none" stroke="#707070" d="M757.22,-603.68C796.15,-570.37 910.16,-472.79 951.12,-437.73"/>
</g>
<!-- 2&#45;&gt;11 -->
<g id="edge18" class="edge">
<title>2&#45;&gt;11</title>
<path fill="none" stroke="#707070" d="M752.63,-600.09C772.94,-565.01 823.62,-477.48 844.64,-441.17"/>
</g>
<!-- 2&#45;&gt;12 -->
<g id="edge20" class="edge">
<title>2&#45;&gt;12</title>
<path fill="none" stroke="#707070" d="M743.82,-597.8C743.45,-562.36 742.59,-481.4 742.2,-444.26"/>
</g>
<!-- 333 -->
<g id="node3" class="node">
<title>333</title>
<polygon fill="white" stroke="white" points="654,-640 494,-640 494,-592 654,-592 654,-640"/>
<text text-anchor="middle" x="574" y="-621.6" font-family="Times,serif" font-size="18.00">Input Units: 2</text>
<text text-anchor="middle" x="574" y="-601.6" font-family="Times,serif" font-size="18.00">Activation: sigmoid</text>
</g>
<!-- 13 -->
<g id="node15" class="node">
<title>13</title>
<ellipse fill="#3498db" stroke="#3498db" cx="630" cy="-232" rx="20.3" ry="20.3"/>
<text text-anchor="middle" x="630" y="-228.3" font-family="Times,serif" font-size="14.00" fill="#3498db">13</text>
</g>
<!-- 3&#45;&gt;13 -->
<g id="edge21" class="edge">
<title>3&#45;&gt;13</title>
<path fill="none" stroke="#707070" d="M631.82,-405.8C631.45,-370.36 630.59,-289.4 630.2,-252.26"/>
</g>
<!-- 14 -->
<g id="node16" class="node">
<title>14</title>
<ellipse fill="#3498db" stroke="#3498db" cx="518" cy="-232" rx="20.3" ry="20.3"/>
<text text-anchor="middle" x="518" y="-228.3" font-family="Times,serif" font-size="14.00" fill="#3498db">14</text>
</g>
<!-- 3&#45;&gt;14 -->
<g id="edge31" class="edge">
<title>3&#45;&gt;14</title>
<path fill="none" stroke="#707070" d="M623.05,-408.09C602.11,-373.19 550.01,-286.35 528.03,-249.72"/>
</g>
<!-- 15 -->
<g id="node17" class="node">
<title>15</title>
<ellipse fill="#3498db" stroke="#3498db" cx="406" cy="-232" rx="20.3" ry="20.3"/>
<text text-anchor="middle" x="406" y="-228.3" font-family="Times,serif" font-size="14.00" fill="#3498db">15</text>
</g>
<!-- 3&#45;&gt;15 -->
<g id="edge41" class="edge">
<title>3&#45;&gt;15</title>
<path fill="none" stroke="#707070" d="M618.54,-411.68C578.91,-378.37 462.85,-280.79 421.14,-245.73"/>
</g>
<!-- 16 -->
<g id="node18" class="node">
<title>16</title>
<ellipse fill="#3498db" stroke="#3498db" cx="294" cy="-232" rx="20.3" ry="20.3"/>
<text text-anchor="middle" x="294" y="-228.3" font-family="Times,serif" font-size="14.00" fill="#3498db">16</text>
</g>
<!-- 3&#45;&gt;16 -->
<g id="edge51" class="edge">
<title>3&#45;&gt;16</title>
<path fill="none" stroke="#707070" d="M616.6,-414.34C560.94,-383.05 370.39,-275.94 311.49,-242.83"/>
</g>
<!-- 17 -->
<g id="node19" class="node">
<title>17</title>
<ellipse fill="#3498db" stroke="#3498db" cx="1302" cy="-232" rx="20.3" ry="20.3"/>
<text text-anchor="middle" x="1302" y="-228.3" font-family="Times,serif" font-size="14.00" fill="#3498db">17</text>
</g>
<!-- 3&#45;&gt;17 -->
<g id="edge61" class="edge">
<title>3&#45;&gt;17</title>
<path fill="none" stroke="#707070" d="M649.24,-418.11C742.33,-391.71 1184.53,-266.31 1282.67,-238.48"/>
</g>
<!-- 18 -->
<g id="node20" class="node">
<title>18</title>
<ellipse fill="#3498db" stroke="#3498db" cx="1190" cy="-232" rx="20.3" ry="20.3"/>
<text text-anchor="middle" x="1190" y="-228.3" font-family="Times,serif" font-size="14.00" fill="#3498db">18</text>
</g>
<!-- 3&#45;&gt;18 -->
<g id="edge71" class="edge">
<title>3&#45;&gt;18</title>
<path fill="none" stroke="#707070" d="M649,-417.21C731.01,-389.29 1085.24,-268.67 1171.17,-239.41"/>
</g>
<!-- 19 -->
<g id="node21" class="node">
<title>19</title>
<ellipse fill="#3498db" stroke="#3498db" cx="1078" cy="-232" rx="20.3" ry="20.3"/>
<text text-anchor="middle" x="1078" y="-228.3" font-family="Times,serif" font-size="14.00" fill="#3498db">19</text>
</g>
<!-- 3&#45;&gt;19 -->
<g id="edge81" class="edge">
<title>3&#45;&gt;19</title>
<path fill="none" stroke="#707070" d="M648.4,-416.01C717.71,-386.49 986.34,-272.05 1059.51,-240.88"/>
</g>
<!-- 20 -->
<g id="node22" class="node">
<title>20</title>
<ellipse fill="#3498db" stroke="#3498db" cx="966" cy="-232" rx="20.3" ry="20.3"/>
<text text-anchor="middle" x="966" y="-228.3" font-family="Times,serif" font-size="14.00" fill="#3498db">20</text>
</g>
<!-- 3&#45;&gt;20 -->
<g id="edge91" class="edge">
<title>3&#45;&gt;20</title>
<path fill="none" stroke="#707070" d="M647.22,-414.34C702.22,-383.05 890.52,-275.94 948.72,-242.83"/>
</g>
<!-- 21 -->
<g id="node23" class="node">
<title>21</title>
<ellipse fill="#3498db" stroke="#3498db" cx="854" cy="-232" rx="20.3" ry="20.3"/>
<text text-anchor="middle" x="854" y="-228.3" font-family="Times,serif" font-size="14.00" fill="#3498db">21</text>
</g>
<!-- 3&#45;&gt;21 -->
<g id="edge101" class="edge">
<title>3&#45;&gt;21</title>
<path fill="none" stroke="#707070" d="M645.22,-411.68C684.15,-378.37 798.16,-280.79 839.12,-245.73"/>
</g>
<!-- 22 -->
<g id="node24" class="node">
<title>22</title>
<ellipse fill="#3498db" stroke="#3498db" cx="742" cy="-232" rx="20.3" ry="20.3"/>
<text text-anchor="middle" x="742" y="-228.3" font-family="Times,serif" font-size="14.00" fill="#3498db">22</text>
</g>
<!-- 3&#45;&gt;22 -->
<g id="edge111" class="edge">
<title>3&#45;&gt;22</title>
<path fill="none" stroke="#707070" d="M640.63,-408.09C660.84,-373.19 711.11,-286.35 732.32,-249.72"/>
</g>
<!-- 4&#45;&gt;13 -->
<g id="edge22" class="edge">
<title>4&#45;&gt;13</title>
<path fill="none" stroke="#707070" d="M532.5,-407.77C552.05,-372.73 600.12,-286.56 620.56,-249.92"/>
</g>
<!-- 4&#45;&gt;14 -->
<g id="edge32" class="edge">
<title>4&#45;&gt;14</title>
<path fill="none" stroke="#707070" d="M523.46,-405.8C522.34,-370.36 519.78,-289.4 518.61,-252.26"/>
</g>
<!-- 4&#45;&gt;15 -->
<g id="edge42" class="edge">
<title>4&#45;&gt;15</title>
<path fill="none" stroke="#707070" d="M514.94,-408.41C493.35,-373.65 439,-286.14 416.26,-249.52"/>
</g>
<!-- 4&#45;&gt;16 -->
<g id="edge52" class="edge">
<title>4&#45;&gt;16</title>
<path fill="none" stroke="#707070" d="M510.3,-411.68C469.88,-378.29 351.29,-280.33 309.11,-245.48"/>
</g>
<!-- 4&#45;&gt;17 -->
<g id="edge62" class="edge">
<title>4&#45;&gt;17</title>
<path fill="none" stroke="#707070" d="M541.34,-418.77C644.25,-393.63 1173.98,-264.27 1282.54,-237.75"/>
</g>
<!-- 4&#45;&gt;18 -->
<g id="edge72" class="edge">
<title>4&#45;&gt;18</title>
<path fill="none" stroke="#707070" d="M541.13,-418.11C633.67,-391.71 1073.23,-266.31 1170.79,-238.48"/>
</g>
<!-- 4&#45;&gt;19 -->
<g id="edge82" class="edge">
<title>4&#45;&gt;19</title>
<path fill="none" stroke="#707070" d="M540.88,-417.21C622.21,-389.32 973.21,-268.94 1059.02,-239.51"/>
</g>
<!-- 4&#45;&gt;20 -->
<g id="edge92" class="edge">
<title>4&#45;&gt;20</title>
<path fill="none" stroke="#707070" d="M540.26,-416.01C608.94,-386.49 875.16,-272.05 947.67,-240.88"/>
</g>
<!-- 4&#45;&gt;21 -->
<g id="edge102" class="edge">
<title>4&#45;&gt;21</title>
<path fill="none" stroke="#707070" d="M539.47,-414.09C594.27,-382.54 778.87,-276.26 836.6,-243.02"/>
</g>
<!-- 4&#45;&gt;22 -->
<g id="edge112" class="edge">
<title>4&#45;&gt;22</title>
<path fill="none" stroke="#707070" d="M537.31,-411.4C575.77,-377.88 686.86,-281.06 727.17,-245.93"/>
</g>
<!-- 5&#45;&gt;13 -->
<g id="edge23" class="edge">
<title>5&#45;&gt;13</title>
<path fill="none" stroke="#707070" d="M429.06,-411.4C466.82,-377.88 575.87,-281.06 615.44,-245.93"/>
</g>
<!-- 5&#45;&gt;14 -->
<g id="edge33" class="edge">
<title>5&#45;&gt;14</title>
<path fill="none" stroke="#707070" d="M424.17,-407.77C442.94,-372.81 489.02,-286.99 508.77,-250.2"/>
</g>
<!-- 5&#45;&gt;15 -->
<g id="edge43" class="edge">
<title>5&#45;&gt;15</title>
<path fill="none" stroke="#707070" d="M415.09,-405.8C413.23,-370.36 408.97,-289.4 407.01,-252.26"/>
</g>
<!-- 5&#45;&gt;16 -->
<g id="edge53" class="edge">
<title>5&#45;&gt;16</title>
<path fill="none" stroke="#707070" d="M406.63,-408.41C384.26,-373.56 327.84,-285.7 304.43,-249.24"/>
</g>
<!-- 5&#45;&gt;17 -->
<g id="edge63" class="edge">
<title>5&#45;&gt;17</title>
<path fill="none" stroke="#707070" d="M433.7,-419.2C546.5,-395.02 1164.03,-262.59 1282.38,-237.21"/>
</g>
<!-- 5&#45;&gt;18 -->
<g id="edge73" class="edge">
<title>5&#45;&gt;18</title>
<path fill="none" stroke="#707070" d="M433.25,-418.77C535.63,-393.63 1062.63,-264.27 1170.64,-237.75"/>
</g>
<!-- 5&#45;&gt;19 -->
<g id="edge83" class="edge">
<title>5&#45;&gt;19</title>
<path fill="none" stroke="#707070" d="M433.03,-418.11C525.01,-391.71 961.93,-266.31 1058.9,-238.48"/>
</g>
<!-- 5&#45;&gt;20 -->
<g id="edge93" class="edge">
<title>5&#45;&gt;20</title>
<path fill="none" stroke="#707070" d="M432.76,-417.21C513.5,-389.32 861.96,-268.94 947.15,-239.51"/>
</g>
<!-- 5&#45;&gt;21 -->
<g id="edge103" class="edge">
<title>5&#45;&gt;21</title>
<path fill="none" stroke="#707070" d="M432.37,-415.9C500.86,-386.19 764.17,-271.97 835.88,-240.86"/>
</g>
<!-- 5&#45;&gt;22 -->
<g id="edge113" class="edge">
<title>5&#45;&gt;22</title>
<path fill="none" stroke="#707070" d="M431.29,-414.09C485.42,-382.54 667.78,-276.26 724.81,-243.02"/>
</g>
<!-- 6&#45;&gt;13 -->
<g id="edge24" class="edge">
<title>6&#45;&gt;13</title>
<path fill="none" stroke="#707070" d="M323.1,-414.09C376.56,-382.54 556.69,-276.26 613.02,-243.02"/>
</g>
<!-- 6&#45;&gt;14 -->
<g id="edge34" class="edge">
<title>6&#45;&gt;14</title>
<path fill="none" stroke="#707070" d="M321.14,-411.11C358.4,-377.4 464.59,-281.32 503.49,-246.13"/>
</g>
<!-- 6&#45;&gt;15 -->
<g id="edge44" class="edge">
<title>6&#45;&gt;15</title>
<path fill="none" stroke="#707070" d="M315.85,-407.77C333.89,-372.81 378.15,-286.99 397.13,-250.2"/>
</g>
<!-- 6&#45;&gt;16 -->
<g id="edge54" class="edge">
<title>6&#45;&gt;16</title>
<path fill="none" stroke="#707070" d="M306.73,-405.8C304.12,-370.36 298.16,-289.4 295.42,-252.26"/>
</g>
<!-- 6&#45;&gt;17 -->
<g id="edge64" class="edge">
<title>6&#45;&gt;17</title>
<path fill="none" stroke="#707070" d="M325.67,-419.62C446.92,-396.45 1154.74,-261.15 1282.3,-236.76"/>
</g>
<!-- 6&#45;&gt;18 -->
<g id="edge74" class="edge">
<title>6&#45;&gt;18</title>
<path fill="none" stroke="#707070" d="M325.62,-419.2C437.91,-395.02 1052.66,-262.59 1170.47,-237.21"/>
</g>
<!-- 6&#45;&gt;19 -->
<g id="edge84" class="edge">
<title>6&#45;&gt;19</title>
<path fill="none" stroke="#707070" d="M325.53,-418.67C428.17,-393.35 950.41,-264.48 1058.43,-237.83"/>
</g>
<!-- 6&#45;&gt;20 -->
<g id="edge94" class="edge">
<title>6&#45;&gt;20</title>
<path fill="none" stroke="#707070" d="M325.26,-418.02C417.32,-391.43 849.91,-266.52 946.74,-238.56"/>
</g>
<!-- 6&#45;&gt;21 -->
<g id="edge104" class="edge">
<title>6&#45;&gt;21</title>
<path fill="none" stroke="#707070" d="M324.94,-417.11C405.58,-389.04 750.16,-269.13 835.05,-239.6"/>
</g>
<!-- 6&#45;&gt;22 -->
<g id="edge114" class="edge">
<title>6&#45;&gt;22</title>
<path fill="none" stroke="#707070" d="M324.22,-415.9C391.93,-386.26 651.8,-272.49 723.56,-241.07"/>
</g>
<!-- 7&#45;&gt;13 -->
<g id="edge25" class="edge">
<title>7&#45;&gt;13</title>
<path fill="none" stroke="#707070" d="M1274.97,-418.11C1182.99,-391.71 746.07,-266.31 649.1,-238.48"/>
</g>
<!-- 7&#45;&gt;14 -->
<g id="edge35" class="edge">
<title>7&#45;&gt;14</title>
<path fill="none" stroke="#707070" d="M1274.75,-418.77C1172.37,-393.63 645.37,-264.27 537.36,-237.75"/>
</g>
<!-- 7&#45;&gt;15 -->
<g id="edge45" class="edge">
<title>7&#45;&gt;15</title>
<path fill="none" stroke="#707070" d="M1274.3,-419.2C1161.5,-395.02 543.97,-262.59 425.62,-237.21"/>
</g>
<!-- 7&#45;&gt;16 -->
<g id="edge55" class="edge">
<title>7&#45;&gt;16</title>
<path fill="none" stroke="#707070" d="M1274.25,-419.62C1152.52,-396.45 441.86,-261.15 313.78,-236.76"/>
</g>
<!-- 7&#45;&gt;17 -->
<g id="edge65" class="edge">
<title>7&#45;&gt;17</title>
<path fill="none" stroke="#707070" d="M1292.91,-405.8C1294.77,-370.36 1299.03,-289.4 1300.99,-252.26"/>
</g>
<!-- 7&#45;&gt;18 -->
<g id="edge75" class="edge">
<title>7&#45;&gt;18</title>
<path fill="none" stroke="#707070" d="M1283.83,-407.77C1265.06,-372.81 1218.98,-286.99 1199.23,-250.2"/>
</g>
<!-- 7&#45;&gt;19 -->
<g id="edge85" class="edge">
<title>7&#45;&gt;19</title>
<path fill="none" stroke="#707070" d="M1278.94,-411.4C1241.18,-377.88 1132.13,-281.06 1092.56,-245.93"/>
</g>
<!-- 7&#45;&gt;20 -->
<g id="edge95" class="edge">
<title>7&#45;&gt;20</title>
<path fill="none" stroke="#707070" d="M1276.71,-414.09C1222.58,-382.54 1040.22,-276.26 983.19,-243.02"/>
</g>
<!-- 7&#45;&gt;21 -->
<g id="edge105" class="edge">
<title>7&#45;&gt;21</title>
<path fill="none" stroke="#707070" d="M1275.63,-415.9C1207.14,-386.19 943.83,-271.97 872.12,-240.86"/>
</g>
<!-- 7&#45;&gt;22 -->
<g id="edge115" class="edge">
<title>7&#45;&gt;22</title>
<path fill="none" stroke="#707070" d="M1275.24,-417.21C1194.5,-389.32 846.04,-268.94 760.85,-239.51"/>
</g>
<!-- 8&#45;&gt;13 -->
<g id="edge26" class="edge">
<title>8&#45;&gt;13</title>
<path fill="none" stroke="#707070" d="M1167.12,-417.21C1085.79,-389.32 734.79,-268.94 648.98,-239.51"/>
</g>
<!-- 8&#45;&gt;14 -->
<g id="edge36" class="edge">
<title>8&#45;&gt;14</title>
<path fill="none" stroke="#707070" d="M1166.87,-418.11C1074.33,-391.71 634.77,-266.31 537.21,-238.48"/>
</g>
<!-- 8&#45;&gt;15 -->
<g id="edge46" class="edge">
<title>8&#45;&gt;15</title>
<path fill="none" stroke="#707070" d="M1166.66,-418.77C1063.75,-393.63 534.02,-264.27 425.46,-237.75"/>
</g>
<!-- 8&#45;&gt;16 -->
<g id="edge56" class="edge">
<title>8&#45;&gt;16</title>
<path fill="none" stroke="#707070" d="M1166.62,-419.29C1054.39,-395.33 432.87,-262.65 313.74,-237.22"/>
</g>
<!-- 8&#45;&gt;17 -->
<g id="edge66" class="edge">
<title>8&#45;&gt;17</title>
<path fill="none" stroke="#707070" d="M1193.06,-408.41C1214.65,-373.65 1269,-286.14 1291.74,-249.52"/>
</g>
<!-- 8&#45;&gt;18 -->
<g id="edge76" class="edge">
<title>8&#45;&gt;18</title>
<path fill="none" stroke="#707070" d="M1184.54,-405.8C1185.66,-370.36 1188.22,-289.4 1189.39,-252.26"/>
</g>
<!-- 8&#45;&gt;19 -->
<g id="edge86" class="edge">
<title>8&#45;&gt;19</title>
<path fill="none" stroke="#707070" d="M1175.5,-407.77C1155.95,-372.73 1107.88,-286.56 1087.44,-249.92"/>
</g>
<!-- 8&#45;&gt;20 -->
<g id="edge96" class="edge">
<title>8&#45;&gt;20</title>
<path fill="none" stroke="#707070" d="M1170.69,-411.4C1132.23,-377.88 1021.14,-281.06 980.83,-245.93"/>
</g>
<!-- 8&#45;&gt;21 -->
<g id="edge106" class="edge">
<title>8&#45;&gt;21</title>
<path fill="none" stroke="#707070" d="M1168.53,-414.09C1113.73,-382.54 929.13,-276.26 871.4,-243.02"/>
</g>
<!-- 8&#45;&gt;22 -->
<g id="edge116" class="edge">
<title>8&#45;&gt;22</title>
<path fill="none" stroke="#707070" d="M1167.74,-416.01C1099.06,-386.49 832.84,-272.05 760.33,-240.88"/>
</g>
<!-- 9&#45;&gt;13 -->
<g id="edge27" class="edge">
<title>9&#45;&gt;13</title>
<path fill="none" stroke="#707070" d="M1059.6,-416.01C990.29,-386.49 721.66,-272.05 648.49,-240.88"/>
</g>
<!-- 9&#45;&gt;14 -->
<g id="edge37" class="edge">
<title>9&#45;&gt;14</title>
<path fill="none" stroke="#707070" d="M1059,-417.21C976.99,-389.29 622.76,-268.67 536.83,-239.41"/>
</g>
<!-- 9&#45;&gt;15 -->
<g id="edge47" class="edge">
<title>9&#45;&gt;15</title>
<path fill="none" stroke="#707070" d="M1058.76,-418.11C965.67,-391.71 523.47,-266.31 425.33,-238.48"/>
</g>
<!-- 9&#45;&gt;16 -->
<g id="edge57" class="edge">
<title>9&#45;&gt;16</title>
<path fill="none" stroke="#707070" d="M1058.57,-418.77C955.13,-393.63 422.68,-264.27 313.56,-237.75"/>
</g>
<!-- 9&#45;&gt;17 -->
<g id="edge67" class="edge">
<title>9&#45;&gt;17</title>
<path fill="none" stroke="#707070" d="M1089.46,-411.68C1129.09,-378.37 1245.15,-280.79 1286.86,-245.73"/>
</g>
<!-- 9&#45;&gt;18 -->
<g id="edge77" class="edge">
<title>9&#45;&gt;18</title>
<path fill="none" stroke="#707070" d="M1084.95,-408.09C1105.89,-373.19 1157.99,-286.35 1179.97,-249.72"/>
</g>
<!-- 9&#45;&gt;19 -->
<g id="edge87" class="edge">
<title>9&#45;&gt;19</title>
<path fill="none" stroke="#707070" d="M1076.18,-405.8C1076.55,-370.36 1077.41,-289.4 1077.8,-252.26"/>
</g>
<!-- 9&#45;&gt;20 -->
<g id="edge97" class="edge">
<title>9&#45;&gt;20</title>
<path fill="none" stroke="#707070" d="M1067.37,-408.09C1047.16,-373.19 996.89,-286.35 975.68,-249.72"/>
</g>
<!-- 9&#45;&gt;21 -->
<g id="edge107" class="edge">
<title>9&#45;&gt;21</title>
<path fill="none" stroke="#707070" d="M1062.78,-411.68C1023.85,-378.37 909.84,-280.79 868.88,-245.73"/>
</g>
<!-- 9&#45;&gt;22 -->
<g id="edge117" class="edge">
<title>9&#45;&gt;22</title>
<path fill="none" stroke="#707070" d="M1060.78,-414.34C1005.78,-383.05 817.48,-275.94 759.28,-242.83"/>
</g>
<!-- 10&#45;&gt;13 -->
<g id="edge28" class="edge">
<title>10&#45;&gt;13</title>
<path fill="none" stroke="#707070" d="M948.88,-413.32C891.37,-380.8 705.54,-275.72 647.49,-242.89"/>
</g>
<!-- 10&#45;&gt;14 -->
<g id="edge38" class="edge">
<title>10&#45;&gt;14</title>
<path fill="none" stroke="#707070" d="M947.6,-415.2C874.99,-384.4 608.75,-271.49 536.3,-240.76"/>
</g>
<!-- 10&#45;&gt;15 -->
<g id="edge48" class="edge">
<title>10&#45;&gt;15</title>
<path fill="none" stroke="#707070" d="M947.05,-416.57C861.36,-387.5 510.63,-268.5 424.95,-239.43"/>
</g>
<!-- 10&#45;&gt;16 -->
<g id="edge58" class="edge">
<title>10&#45;&gt;16</title>
<path fill="none" stroke="#707070" d="M946.61,-417.52C848.81,-389.86 410.38,-265.91 313.14,-238.41"/>
</g>
<!-- 10&#45;&gt;17 -->
<g id="edge68" class="edge">
<title>10&#45;&gt;17</title>
<path fill="none" stroke="#707070" d="M983.12,-413.32C1040.63,-380.8 1226.46,-275.72 1284.51,-242.89"/>
</g>
<!-- 10&#45;&gt;18 -->
<g id="edge78" class="edge">
<title>10&#45;&gt;18</title>
<path fill="none" stroke="#707070" d="M981.05,-410.24C1021.85,-375.63 1134.29,-280.25 1175.02,-245.71"/>
</g>
<!-- 10&#45;&gt;19 -->
<g id="edge88" class="edge">
<title>10&#45;&gt;19</title>
<path fill="none" stroke="#707070" d="M975.94,-406.14C997.19,-370.08 1046.85,-285.85 1068.08,-249.82"/>
</g>
<!-- 10&#45;&gt;20 -->
<g id="edge98" class="edge">
<title>10&#45;&gt;20</title>
<path fill="none" stroke="#707070" d="M966,-403.74C966,-367.32 966,-288.77 966,-252.31"/>
</g>
<!-- 10&#45;&gt;21 -->
<g id="edge108" class="edge">
<title>10&#45;&gt;21</title>
<path fill="none" stroke="#707070" d="M956.06,-406.14C934.81,-370.08 885.15,-285.85 863.92,-249.82"/>
</g>
<!-- 10&#45;&gt;22 -->
<g id="edge118" class="edge">
<title>10&#45;&gt;22</title>
<path fill="none" stroke="#707070" d="M950.95,-410.24C910.15,-375.63 797.71,-280.25 756.98,-245.71"/>
</g>
<!-- 11&#45;&gt;13 -->
<g id="edge29" class="edge">
<title>11&#45;&gt;13</title>
<path fill="none" stroke="#707070" d="M839.3,-410.53C798.81,-376.19 685.95,-280.45 645.05,-245.76"/>
</g>
<!-- 11&#45;&gt;14 -->
<g id="edge39" class="edge">
<title>11&#45;&gt;14</title>
<path fill="none" stroke="#707070" d="M837.34,-413.58C780.27,-381.31 592.99,-275.41 535.16,-242.71"/>
</g>
<!-- 11&#45;&gt;15 -->
<g id="edge49" class="edge">
<title>11&#45;&gt;15</title>
<path fill="none" stroke="#707070" d="M836.16,-415.43C764.39,-385 497.13,-271.65 424.38,-240.8"/>
</g>
<!-- 11&#45;&gt;16 -->
<g id="edge59" class="edge">
<title>11&#45;&gt;16</title>
<path fill="none" stroke="#707070" d="M835.69,-416.79C751.14,-388.1 399.06,-268.65 313.03,-239.46"/>
</g>
<!-- 11&#45;&gt;17 -->
<g id="edge69" class="edge">
<title>11&#45;&gt;17</title>
<path fill="none" stroke="#707070" d="M871.84,-415.43C943.61,-385 1210.87,-271.65 1283.62,-240.8"/>
</g>
<!-- 11&#45;&gt;18 -->
<g id="edge79" class="edge">
<title>11&#45;&gt;18</title>
<path fill="none" stroke="#707070" d="M870.66,-413.58C927.73,-381.31 1115.01,-275.41 1172.84,-242.71"/>
</g>
<!-- 11&#45;&gt;19 -->
<g id="edge89" class="edge">
<title>11&#45;&gt;19</title>
<path fill="none" stroke="#707070" d="M868.7,-410.53C909.19,-376.19 1022.05,-280.45 1062.95,-245.76"/>
</g>
<!-- 11&#45;&gt;20 -->
<g id="edge99" class="edge">
<title>11&#45;&gt;20</title>
<path fill="none" stroke="#707070" d="M863.55,-406.8C884.6,-371.08 934.83,-285.87 956.16,-249.7"/>
</g>
<!-- 11&#45;&gt;21 -->
<g id="edge109" class="edge">
<title>11&#45;&gt;21</title>
<path fill="none" stroke="#707070" d="M854,-404.44C854,-368.3 854,-288.85 854,-252.2"/>
</g>
<!-- 11&#45;&gt;22 -->
<g id="edge119" class="edge">
<title>11&#45;&gt;22</title>
<path fill="none" stroke="#707070" d="M844.45,-406.8C823.4,-371.08 773.17,-285.87 751.84,-249.7"/>
</g>
<!-- 12&#45;&gt;13 -->
<g id="edge30" class="edge">
<title>12&#45;&gt;13</title>
<path fill="none" stroke="#707070" d="M732.06,-406.14C710.81,-370.08 661.15,-285.85 639.92,-249.82"/>
</g>
<!-- 12&#45;&gt;14 -->
<g id="edge40" class="edge">
<title>12&#45;&gt;14</title>
<path fill="none" stroke="#707070" d="M726.95,-410.24C686.15,-375.63 573.71,-280.25 532.98,-245.71"/>
</g>
<!-- 12&#45;&gt;15 -->
<g id="edge50" class="edge">
<title>12&#45;&gt;15</title>
<path fill="none" stroke="#707070" d="M724.88,-413.32C667.37,-380.8 481.54,-275.72 423.49,-242.89"/>
</g>
<!-- 12&#45;&gt;16 -->
<g id="edge60" class="edge">
<title>12&#45;&gt;16</title>
<path fill="none" stroke="#707070" d="M723.6,-415.2C650.99,-384.4 384.75,-271.49 312.3,-240.76"/>
</g>
<!-- 12&#45;&gt;17 -->
<g id="edge70" class="edge">
<title>12&#45;&gt;17</title>
<path fill="none" stroke="#707070" d="M760.95,-416.57C846.64,-387.5 1197.37,-268.5 1283.05,-239.43"/>
</g>
<!-- 12&#45;&gt;18 -->
<g id="edge80" class="edge">
<title>12&#45;&gt;18</title>
<path fill="none" stroke="#707070" d="M760.4,-415.2C833.01,-384.4 1099.25,-271.49 1171.7,-240.76"/>
</g>
<!-- 12&#45;&gt;19 -->
<g id="edge90" class="edge">
<title>12&#45;&gt;19</title>
<path fill="none" stroke="#707070" d="M759.12,-413.32C816.63,-380.8 1002.46,-275.72 1060.51,-242.89"/>
</g>
<!-- 12&#45;&gt;20 -->
<g id="edge100" class="edge">
<title>12&#45;&gt;20</title>
<path fill="none" stroke="#707070" d="M757.05,-410.24C797.85,-375.63 910.29,-280.25 951.02,-245.71"/>
</g>
<!-- 12&#45;&gt;21 -->
<g id="edge110" class="edge">
<title>12&#45;&gt;21</title>
<path fill="none" stroke="#707070" d="M751.94,-406.14C773.19,-370.08 822.85,-285.85 844.08,-249.82"/>
</g>
<!-- 12&#45;&gt;22 -->
<g id="edge120" class="edge">
<title>12&#45;&gt;22</title>
<path fill="none" stroke="#707070" d="M742,-403.74C742,-367.32 742,-288.77 742,-252.31"/>
</g>
<!-- 222 -->
<g id="node14" class="node">
<title>222</title>
<polygon fill="none" stroke="white" points="218,-448 58,-448 58,-400 218,-400 218,-448"/>
<text text-anchor="middle" x="138" y="-429.6" font-family="Times,serif" font-size="18.00">Units: 16 (+6 more)</text>
<text text-anchor="middle" x="138" y="-409.6" font-family="Times,serif" font-size="18.00">Activation: sigmoid</text>
</g>
<!-- 23 -->
<g id="node26" class="node">
<title>23</title>
<ellipse fill="#e74c3c" stroke="#e74c3c" cx="798" cy="-40" rx="20.3" ry="20.3"/>
<text text-anchor="middle" x="798" y="-36.3" font-family="Times,serif" font-size="14.00" fill="#e74c3c">23</text>
</g>
<!-- 13&#45;&gt;23 -->
<g id="edge121" class="edge">
<title>13&#45;&gt;23</title>
<path fill="none" stroke="#707070" d="M642.9,-216.41C674.18,-181.04 753.74,-91.06 785.05,-55.64"/>
</g>
<!-- 14&#45;&gt;23 -->
<g id="edge122" class="edge">
<title>14&#45;&gt;23</title>
<path fill="none" stroke="#707070" d="M534.26,-219.96C583.75,-186.38 732.14,-85.69 781.69,-52.07"/>
</g>
<!-- 15&#45;&gt;23 -->
<g id="edge123" class="edge">
<title>15&#45;&gt;23</title>
<path fill="none" stroke="#707070" d="M423.86,-222.34C489.17,-190.69 714.56,-81.44 780.03,-49.71"/>
</g>
<!-- 16&#45;&gt;23 -->
<g id="edge124" class="edge">
<title>16&#45;&gt;23</title>
<path fill="none" stroke="#707070" d="M312.54,-224.01C391.56,-194.22 699.94,-77.97 779.3,-48.05"/>
</g>
<!-- 17&#45;&gt;23 -->
<g id="edge125" class="edge">
<title>17&#45;&gt;23</title>
<path fill="none" stroke="#707070" d="M1283.46,-224.01C1204.44,-194.22 896.06,-77.97 816.7,-48.05"/>
</g>
<!-- 18&#45;&gt;23 -->
<g id="edge126" class="edge">
<title>18&#45;&gt;23</title>
<path fill="none" stroke="#707070" d="M1172.14,-222.34C1106.83,-190.69 881.44,-81.44 815.97,-49.71"/>
</g>
<!-- 19&#45;&gt;23 -->
<g id="edge127" class="edge">
<title>19&#45;&gt;23</title>
<path fill="none" stroke="#707070" d="M1061.74,-219.96C1012.25,-186.38 863.86,-85.69 814.31,-52.07"/>
</g>
<!-- 20&#45;&gt;23 -->
<g id="edge128" class="edge">
<title>20&#45;&gt;23</title>
<path fill="none" stroke="#707070" d="M953.1,-216.41C921.82,-181.04 842.26,-91.06 810.95,-55.64"/>
</g>
<!-- 21&#45;&gt;23 -->
<g id="edge129" class="edge">
<title>21&#45;&gt;23</title>
<path fill="none" stroke="#707070" d="M848.53,-212.44C837.82,-176.11 814.22,-96.02 803.49,-59.64"/>
</g>
<!-- 22&#45;&gt;23 -->
<g id="edge130" class="edge">
<title>22&#45;&gt;23</title>
<path fill="none" stroke="#707070" d="M747.47,-212.44C758.18,-176.11 781.78,-96.02 792.51,-59.64"/>
</g>
<!-- 121212 -->
<g id="node25" class="node">
<title>121212</title>
<polygon fill="none" stroke="white" points="202,-256 16,-256 16,-208 202,-208 202,-256"/>
<text text-anchor="middle" x="109" y="-237.6" font-family="Times,serif" font-size="18.00">Units: 128 (+118 more)</text>
<text text-anchor="middle" x="109" y="-217.6" font-family="Times,serif" font-size="18.00">Activation: sigmoid</text>
</g>
<!-- 222222 -->
<g id="node27" class="node">
<title>222222</title>
<polygon fill="white" stroke="white" points="706,-64 546,-64 546,-16 706,-16 706,-64"/>
<text text-anchor="middle" x="626" y="-45.6" font-family="Times,serif" font-size="18.00">Output Units: 1</text>
<text text-anchor="middle" x="626" y="-25.6" font-family="Times,serif" font-size="18.00">Activation: sigmoid</text>
</g>
</g>
</svg>
